<?xml version="1.0" standalone="no"?>
<!DOCTYPE svg PUBLIC "-//W3C//DTD SVG 20010904//EN"
 "http://www.w3.org/TR/2001/REC-SVG-20010904/DTD/svg10.dtd">
<svg version="1.0" xmlns="http://www.w3.org/2000/svg"
 width="564.000000pt" height="564.000000pt" viewBox="0 0 564.000000 564.000000"
 preserveAspectRatio="xMidYMid meet">
<metadata>
Created by potrace 1.11, written by Peter Selinger 2001-2013
</metadata>
<g transform="translate(0.000000,564.000000) scale(0.100000,-0.100000)"
fill="#000000" stroke="none">
<path d="M10 2820 l0 -2820 2810 0 2810 0 0 2820 0 2820 -2810 0 -2810 0 0
-2820z m4755 2620 l30 -99 104 -3 105 -3 -71 -53 c-103 -76 -99 -66 -64 -178
17 -54 29 -99 28 -101 -2 -1 -37 25 -79 57 -42 33 -81 60 -87 60 -6 0 -45 -27
-88 -60 -42 -32 -78 -58 -80 -57 -1 2 11 45 27 97 17 52 30 99 30 105 -1 5
-37 37 -82 70 l-82 60 105 3 105 3 30 99 c16 55 31 100 34 100 4 0 19 -45 35
-100z m570 0 l30 -99 104 -3 105 -3 -71 -53 c-103 -76 -99 -66 -64 -178 17
-54 29 -99 28 -101 -2 -1 -37 25 -79 57 -42 33 -81 60 -87 60 -6 0 -45 -27
-88 -60 -42 -32 -78 -58 -80 -57 -1 2 11 45 27 97 17 52 30 99 30 105 -1 5
-37 37 -82 70 l-82 60 105 3 105 3 30 99 c16 55 31 100 34 100 4 0 19 -45 35
-100z m-5074 -18 c37 -29 73 -52 80 -52 8 1 48 27 89 60 41 32 76 58 77 56 2
-1 -11 -45 -27 -97 -16 -52 -30 -98 -29 -104 0 -5 36 -37 81 -70 l82 -60 -105
-3 -104 -3 -30 -99 c-16 -55 -31 -100 -35 -100 -3 0 -18 45 -34 100 l-30 99
-105 3 -105 3 80 59 c43 33 81 61 83 62 4 3 -40 157 -57 203 -7 18 -10 20 89
-57z m610 0 c37 -29 73 -52 80 -52 8 1 48 27 89 60 41 32 76 58 77 56 2 -1
-11 -45 -27 -97 -16 -52 -30 -98 -29 -104 0 -5 36 -37 81 -70 l82 -60 -105 -3
-104 -3 -30 -99 c-16 -55 -31 -100 -35 -100 -3 0 -18 45 -34 100 l-30 99 -105
3 -105 3 80 59 c43 33 81 61 83 62 4 3 -40 157 -57 203 -7 18 -10 20 89 -57z
m3624 -552 l30 -99 104 -3 105 -3 -71 -53 c-103 -76 -99 -66 -64 -178 17 -54
29 -99 28 -101 -2 -1 -37 25 -79 57 -42 33 -81 60 -87 60 -6 0 -45 -27 -88
-60 -42 -32 -78 -58 -80 -57 -1 2 11 45 27 97 17 52 30 99 30 105 -1 5 -37 37
-82 70 l-82 60 105 3 105 3 30 99 c16 55 31 100 34 100 4 0 19 -45 35 -100z
m610 -10 l30 -99 104 -3 105 -3 -71 -53 c-103 -76 -99 -66 -64 -178 17 -54 29
-99 28 -101 -2 -1 -37 25 -79 57 -42 33 -81 60 -87 60 -6 0 -45 -27 -88 -60
-42 -32 -78 -58 -80 -57 -1 2 11 45 27 97 17 52 30 99 30 105 -1 5 -37 37 -82
70 l-82 60 105 3 105 3 30 99 c16 55 31 100 34 100 4 0 19 -45 35 -100z
m-4574 -18 c37 -29 73 -52 80 -52 8 1 48 27 89 60 41 32 76 58 77 56 2 -1 -11
-45 -27 -97 -16 -52 -30 -98 -29 -104 0 -5 36 -37 81 -70 l82 -60 -105 -3
-104 -3 -30 -99 c-16 -55 -31 -100 -35 -100 -3 0 -18 45 -34 100 l-30 99 -105
3 -105 3 80 59 c43 33 81 61 83 62 4 3 -40 157 -57 203 -7 18 -10 20 89 -57z
m570 0 c37 -29 73 -52 80 -52 8 1 48 27 89 60 41 32 76 58 77 56 2 -1 -11 -45
-27 -97 -16 -52 -30 -98 -29 -104 0 -5 36 -37 81 -70 l82 -60 -105 -3 -104 -3
-30 -99 c-16 -55 -31 -100 -35 -100 -3 0 -18 45 -34 100 l-30 99 -105 3 -105
3 80 59 c43 33 81 61 83 62 4 3 -40 157 -57 203 -7 18 -10 20 89 -57z m629
-822 c133 -33 223 -82 310 -169 90 -90 139 -177 175 -312 43 -160 46 -252 43
-1084 l-3 -780 -342 -3 -343 -2 0 722 c0 398 -4 760 -10 806 -14 127 -44 162
-138 162 -64 0 -108 -28 -134 -88 -19 -41 -22 -72 -26 -239 l-5 -193 102 0
101 0 0 -310 0 -310 -100 0 -100 0 0 -275 0 -275 -342 2 -343 3 -3 784 c-2
839 0 895 48 1041 95 286 323 482 620 530 41 6 82 13 90 15 8 2 83 2 165 0
108 -3 174 -10 235 -25z m1582 -837 c3 -899 1 -865 67 -871 53 -5 79 6 98 41
17 30 18 89 21 835 l3 802 344 0 344 0 3 -807 c3 -670 5 -812 17 -833 19 -34
30 -40 73 -40 44 0 73 26 88 79 6 22 10 334 10 819 l0 782 345 0 346 0 -3
-917 -3 -918 -27 -80 c-39 -114 -92 -196 -179 -280 -127 -121 -269 -175 -463
-175 -110 0 -185 18 -286 67 -82 40 -185 133 -235 213 l-28 44 -16 -24 c-37
-56 -114 -140 -163 -178 -110 -84 -233 -122 -403 -122 -334 0 -540 167 -622
505 -15 62 -17 166 -20 968 l-4 897 345 0 345 0 3 -807z m-2831 -2041 c37 -29
73 -52 80 -52 8 1 48 27 89 60 41 32 76 58 77 56 2 -1 -11 -45 -27 -97 -16
-52 -30 -98 -29 -104 0 -5 36 -37 81 -70 l82 -60 -105 -3 -104 -3 -30 -99
c-16 -55 -31 -100 -35 -100 -3 0 -18 45 -34 100 l-30 99 -105 3 -105 3 80 59
c43 33 81 61 83 62 4 3 -40 157 -57 203 -7 18 -10 20 89 -57z m610 0 c37 -29
73 -52 80 -52 8 1 48 27 89 60 41 32 76 58 77 56 2 -1 -11 -45 -27 -97 -16
-52 -30 -98 -29 -104 0 -5 36 -37 81 -70 l82 -60 -105 -3 -104 -3 -30 -99
c-16 -55 -31 -100 -35 -100 -3 0 -18 45 -34 100 l-30 99 -105 3 -105 3 80 59
c43 33 81 61 83 62 4 3 -40 157 -57 203 -7 18 -10 20 89 -57z m3290 -50 c37
-29 73 -52 80 -52 8 1 48 27 89 60 41 32 76 58 77 56 2 -1 -11 -45 -27 -97
-16 -52 -30 -98 -29 -104 0 -5 36 -37 81 -70 l82 -60 -105 -3 -104 -3 -30 -99
c-16 -55 -31 -100 -35 -100 -3 0 -18 45 -34 100 l-30 99 -105 3 -105 3 80 59
c43 33 81 61 83 62 4 3 -40 157 -57 203 -7 18 -10 20 89 -57z m610 0 c37 -29
73 -52 80 -52 8 1 48 27 89 60 41 32 76 58 77 56 2 -1 -11 -45 -27 -97 -16
-52 -30 -98 -29 -104 0 -5 36 -37 81 -70 l82 -60 -105 -3 -104 -3 -30 -99
c-16 -55 -31 -100 -35 -100 -3 0 -18 45 -34 100 l-30 99 -105 3 -105 3 80 59
c43 33 81 61 83 62 4 3 -40 157 -57 203 -7 18 -10 20 89 -57z m-4740 -520 c37
-29 73 -52 80 -52 8 1 48 27 89 60 41 32 76 58 77 56 2 -1 -11 -45 -27 -97
-16 -52 -30 -98 -29 -104 0 -5 36 -37 81 -70 l82 -60 -105 -3 -104 -3 -30 -99
c-16 -55 -31 -100 -35 -100 -3 0 -18 45 -34 100 l-30 99 -105 3 -105 3 80 59
c43 33 81 61 83 62 4 3 -40 157 -57 203 -7 18 -10 20 89 -57z m570 0 c37 -29
73 -52 80 -52 8 1 48 27 89 60 41 32 76 58 77 56 2 -1 -11 -45 -27 -97 -16
-52 -30 -98 -29 -104 0 -5 36 -37 81 -70 l82 -60 -105 -3 -104 -3 -30 -99
c-16 -55 -31 -100 -35 -100 -3 0 -18 45 -34 100 l-30 99 -105 3 -105 3 80 59
c43 33 81 61 83 62 4 3 -40 157 -57 203 -7 18 -10 20 89 -57z m3830 -50 c37
-29 73 -52 80 -52 8 1 48 27 89 60 41 32 76 58 77 56 2 -1 -11 -45 -27 -97
-16 -52 -30 -98 -29 -104 0 -5 36 -37 81 -70 l82 -60 -105 -3 -104 -3 -30 -99
c-16 -55 -31 -100 -35 -100 -3 0 -18 45 -34 100 l-30 99 -105 3 -105 3 80 59
c43 33 81 61 83 62 4 3 -40 157 -57 203 -7 18 -10 20 89 -57z m570 0 c37 -29
73 -52 80 -52 8 1 48 27 89 60 41 32 76 58 77 56 2 -1 -11 -45 -27 -97 -16
-52 -30 -98 -29 -104 0 -5 36 -37 81 -70 l82 -60 -105 -3 -104 -3 -30 -99
c-16 -55 -31 -100 -35 -100 -3 0 -18 45 -34 100 l-30 99 -105 3 -105 3 80 59
c43 33 81 61 83 62 4 3 -40 157 -57 203 -7 18 -10 20 89 -57z"/>
</g>
</svg>
